<svg fill="none" height="24" viewBox="0 0 24 24" width="24" xmlns="http://www.w3.org/2000/svg"><path d="m10.8752 12c0 .2984.1185.5845.3295.7955s.4971.3295.7955.3295.5845-.1185.7955-.3295.3295-.4971.3295-.7955-.1185-.5845-.3295-.7955-.4971-.3295-.7955-.3295-.5845.1185-.7955.3295-.3295.4971-.3295.7955zm4.6875 0c0 .2984.1185.5845.3295.7955s.4971.3295.7955.3295.5845-.1185.7955-.3295.3295-.4971.3295-.7955-.1185-.5845-.3295-.7955-.4971-.3295-.7955-.3295-.5845.1185-.7955.3295-.3295.4971-.3295.7955zm-9.37501 0c0 .2984.11853.5845.32951.7955s.49713.3295.79549.3295c.29837 0 .58452-.1185.7955-.3295s.3295-.4971.3295-.7955-.11852-.5845-.3295-.7955-.49713-.3295-.7955-.3295c-.29836 0-.58451.1185-.79549.3295s-.32951.4971-.32951.7955zm15.49691-4.06875c-.5297-1.25859-1.2891-2.38828-2.2571-3.35859-.9612-.9647-2.1022-1.73152-3.3586-2.25703-1.289-.54141-2.6578-.81563-4.0687-.81563h-.0469c-1.4203.00703-2.79607.28828-4.08982.84141-1.24557.53091-2.37595 1.29908-3.32813 2.26171-.95859.96797-1.71094 2.09297-2.23125 3.34688-.53906 1.29844-.81094 2.6789-.80391 4.0992.00796 1.6277.39303 3.2314 1.125 4.6852v3.5625c0 .2859.11359.5601.31578.7623s.47641.3158.76235.3158h3.56484c1.45382.732 3.05754 1.117 4.68514 1.125h.0492c1.4039 0 2.7657-.2719 4.0477-.8039 1.25-.5193 2.3868-1.2771 3.3469-2.2313.9679-.9585 1.7297-2.0789 2.2617-3.3281.5531-1.2937.8344-2.6695.8414-4.0898.007-1.4274-.2695-2.81252-.8156-4.11565zm-3.5414 10.26565c-1.643 1.6265-3.8227 2.5219-6.143 2.5219h-.0398c-1.4133-.0071-2.81724-.3586-4.05708-1.0196l-.19688-.1054h-3.3v-3.3l-.10546-.1969c-.66094-1.2399-1.0125-2.6438-1.01954-4.0571-.00937-2.33668.8836-4.53043 2.52188-6.18277 1.63594-1.65234 3.82266-2.56641 6.15938-2.57578h.0398c1.1719 0 2.3086.22734 3.3797.67734 1.0453.43828 1.9828 1.06875 2.7891 1.875.8039.80391 1.4367 1.74375 1.875 2.78907.4547 1.08281.682 2.23124.6773 3.41714-.014 2.3344-.9304 4.5211-2.5804 6.1571z" fill="#8c8c8c"/></svg>