<svg fill="none" height="16" viewBox="0 0 16 16" width="16" xmlns="http://www.w3.org/2000/svg"><path d="m13.0328 7.33147c-.3033-.68272-.7443-1.2955-1.2953-1.8l-.4547-.41719c-.0154-.01377-.034-.02355-.0541-.02847s-.0411-.00482-.0612.00027c-.02.00509-.0385.01502-.0538.02893s-.027.03137-.034.05084l-.2031.58281c-.1266.36562-.3594.73906-.6891 1.10625-.0219.02344-.0469.02969-.0641.03125-.0171.00156-.0437-.00156-.0672-.02344-.0218-.01875-.0328-.04687-.0312-.075.0578-.94062-.22344-2.00156-.83906-3.15625-.50938-.95937-1.21719-1.70781-2.10157-2.22969l-.64531-.37968c-.08437-.050002-.19218.01562-.1875.11406l.03438.75c.02343.5125-.03594.96563-.17656 1.34219-.17188.46094-.41876.88906-.73438 1.27344-.21965.26712-.46861.50874-.74219.72031-.6589.50651-1.19466 1.15552-1.56719 1.89844-.3716.74939-.56517 1.57446-.56562 2.41093 0 .73753.14531 1.45153.43281 2.12503.27761.6484.67822 1.2368 1.17969 1.7328.50625.5 1.09375.8937 1.74844 1.1672.67812.2843 1.39687.4281 2.13906.4281s1.46094-.1438 2.1391-.4266c.653-.2718 1.2469-.6682 1.7484-1.1672.5063-.5.9031-1.0843 1.1797-1.7328.2871-.6716.4343-1.3946.4328-2.12497 0-.7625-.1562-1.50312-.4672-2.20156zm-1.8922 5.30153c-.839.8313-1.9531 1.2875-3.1406 1.2875s-2.30156-.4562-3.14062-1.2875c-.83594-.8297-1.29688-1.9297-1.29688-3.09997 0-.67968.15313-1.33124.45469-1.93749.29375-.59219.73125-1.12188 1.2625-1.52969.33881-.25907.64611-.55694.91562-.8875.39063-.47656.69688-1.00782.90938-1.57813.08716-.23525.1505-.47866.18906-.72656.37656.34688.69219.76562.95625 1.25625.52187.97812.7625 1.84844.71562 2.58906-.01119.17443.01729.34914.08333.51097.06603.16184.16789.3066.29793.42341.11268.10179.24447.18017.3877.2306.14324.05043.29502.07189.44662.06315.3079-.01563.5907-.15156.7969-.38125.2078-.23281.3875-.47031.5375-.7125.2188.27969.4016.58437.5469.9125.2484.55937.375 1.15468.375 1.76718 0 1.17027-.4609 2.27187-1.2969 3.09997z" fill="#fff"/></svg>