<svg fill="none" height="24" viewBox="0 0 24 24" width="24" xmlns="http://www.w3.org/2000/svg"><path d="m20.7633 12.5094c.3937-.5203.6117-1.1578.6117-1.8211 0-1.05234-.5883-2.04843-1.5352-2.6039-.2437-.14298-.5213-.21823-.8039-.21797h-5.6203l.1407-2.88047c.0328-.69609-.2133-1.35703-.6915-1.86094-.2346-.24837-.5177-.44598-.8317-.58062-.314-.13465-.6524-.20346-.994-.20219-1.21879 0-2.29691.82031-2.62035 1.99453l-2.01328 7.28906h-3.03047c-.41484 0-.75.3352-.75.75v8.5313c0 .4148.33516.75.75.75h14.093c.2156 0 .4265-.0422.6211-.1266 1.1156-.4758 1.8351-1.5656 1.8351-2.775 0-.2953-.0422-.5859-.1265-.8672.3937-.5203.6117-1.1578.6117-1.8211 0-.2953-.0422-.5859-.1266-.8672.3938-.5203.6117-1.1578.6117-1.8211-.0047-.2953-.0468-.5883-.1312-.8695zm-16.4508 7.4602v-6.6563h1.89844v6.6563zm14.9156-8.2735-.5133.4453.3258.5953c.1074.1961.163.4163.1617.6399 0 .3867-.1687.7547-.4593 1.0078l-.5133.4453.3258.5953c.1073.1961.163.4163.1617.6399 0 .3867-.1688.7547-.4594 1.0078l-.5133.4453.3258.5953c.1073.1961.163.4163.1617.6398 0 .525-.3093.9985-.7875 1.2141h-9.73356v-6.7289l2.33206-8.44921c.0601-.21657.1892-.40762.3677-.54423.1784-.13661.3966-.21132.6213-.21281.1782 0 .3539.05157.4946.15704.232.17343.3562.43593.3421.71484l-.225 4.65h7.3688c.4172.25547.675.68667.675 1.13437 0 .3867-.1687.7523-.4594 1.0078z" fill="#8c8c8c"/></svg>