<svg fill="none" height="34" viewBox="0 0 34 34" width="34" xmlns="http://www.w3.org/2000/svg"><rect fill="#bfbfbf" height="34" rx="4" width="34"/><path d="m27.8286 24.8625c-.5895-1.3963-1.4449-2.6647-2.5187-3.7344-1.0705-1.0728-2.3387-1.9281-3.7344-2.5187-.0125-.0063-.025-.0094-.0375-.0156 1.9469-1.4063 3.2125-3.6969 3.2125-6.2813 0-4.28125-3.4687-7.75-7.75-7.75-4.2812 0-7.74998 3.46875-7.74998 7.75 0 2.5844 1.26558 4.875 3.21248 6.2844-.0125.0062-.025.0093-.0375.0156-1.4.5906-2.65623 1.4375-3.73435 2.5188-1.07279 1.0705-1.92812 2.3386-2.51875 3.7343-.58025 1.3664-.89319 2.8314-.92188 4.3156-.00083.0334.00502.0666.01721.0976.01219.0311.03047.0594.05377.0833s.05114.0428.08188.0558c.03075.0129.06378.0196.09714.0196h1.875c.1375 0 .24688-.1094.25-.2437.0625-2.4126 1.03125-4.6719 2.74378-6.3844 1.7718-1.7719 4.125-2.7469 6.6312-2.7469 2.5063 0 4.8594.975 6.6313 2.7469 1.7125 1.7125 2.6812 3.9718 2.7437 6.3844.0031.1375.1125.2437.25.2437h1.875c.0334 0 .0664-.0067.0972-.0196.0307-.013.0585-.0319.0818-.0558s.0416-.0522.0538-.0833c.0122-.031.0181-.0642.0172-.0976-.0312-1.4937-.3406-2.9468-.9219-4.3187zm-10.8281-7.175c-1.4344 0-2.7844-.5594-3.8-1.575s-1.575-2.3656-1.575-3.8.5594-2.78438 1.575-3.8c1.0156-1.01563 2.3656-1.575 3.8-1.575s2.7844.55937 3.8 1.575c1.0156 1.01562 1.575 2.3656 1.575 3.8s-.5594 2.7844-1.575 3.8-2.3656 1.575-3.8 1.575z" fill="#fff"/></svg>