<svg fill="none" height="24" viewBox="0 0 24 24" width="24" xmlns="http://www.w3.org/2000/svg"><path d="m16.5371 2.92734c-.0287-.01445-.0606-.0213-.0927-.01987-.0321.00142-.0633.01107-.0906.02801s-.0497.0406-.0653.06873c-.0155.02812-.0235.05976-.0233.09188v1.50469c0 .12891.068.24844.1758.31875.5285.33267 1.0176.72423 1.4578 1.16719.7664.76875 1.3688 1.66172 1.7883 2.65547.4339 1.02874.6563 2.13431.6539 3.25081 0 1.1273-.2203 2.2218-.6539 3.2508-.4191.9923-1.0263 1.894-1.7883 2.6554-.7594.7639-1.6606 1.3721-2.6531 1.7906-1.0266.436-2.1211.6563-3.2461.6563s-2.21953-.2203-3.2461-.6563c-.99248-.4185-1.89372-1.0267-2.65312-1.7906-.76195-.7614-1.36923-1.6631-1.78828-2.6554-.43387-1.0288-.65626-2.1343-.65391-3.2508 0-1.1274.22031-2.22191.65391-3.25081.41953-.99375 1.02187-1.88672 1.78828-2.65547.44531-.44531.93281-.83438 1.45781-1.16719.11016-.06797.17578-.18984.17578-.31875v-1.50703c0-.14063-.14765-.22969-.27187-.16875-3.27891 1.65-5.54063 5.02734-5.5875 8.9414-.06563 5.5969 4.51172 10.2469 10.1062 10.2586 5.6016.0117 10.1438-4.5305 10.1438-10.1344 0-3.9656-2.2734-7.39919-5.5875-9.06326zm-5.2875 10.19766h1.5c.1031 0 .1875-.0844.1875-.1875v-10.875c0-.10313-.0844-.1875-.1875-.1875h-1.5c-.1031 0-.1875.08437-.1875.1875v10.875c0 .1031.0844.1875.1875.1875z" fill="#000"/></svg>