<svg fill="none" height="24" viewBox="0 0 24 24" width="24" xmlns="http://www.w3.org/2000/svg"><path d="m20.9367 6.87422-3.8109-3.81094c-.1758-.17578-.3914-.30469-.6258-.375v-.06328h-13.125c-.41484 0-.75.33516-.75.75v17.25c0 .4148.33516.75.75.75h17.25c.4148 0 .75-.3352.75-.75v-12.69141c0-.39843-.157-.77812-.4383-1.05937zm-11.9367-2.56172h6v2.4375h-6zm10.6875 15.375h-15.375v-15.375h3.1875v3.1875c0 .41484.33516.75.75.75h7.5c.4148 0 .75-.33516.75-.75v-2.67656l3.1875 3.1875zm-7.6875-9.3281c-1.8633 0-3.375 1.5117-3.375 3.375s1.5117 3.375 3.375 3.375 3.375-1.5117 3.375-3.375-1.5117-3.375-3.375-3.375zm0 5.25c-1.0359 0-1.875-.8391-1.875-1.875 0-1.036.8391-1.875 1.875-1.875s1.875.839 1.875 1.875c0 1.0359-.8391 1.875-1.875 1.875z" fill="#8c8c8c"/></svg>