<svg fill="none" height="16" viewBox="0 0 16 16" width="16" xmlns="http://www.w3.org/2000/svg"><path d="m14.2125 13.3516-4.0578-4.05785c.6297-.81406.9703-1.80937.9703-2.85625 0-1.25312-.4891-2.42813-1.37344-3.31406-.88437-.88594-2.0625-1.37344-3.31406-1.37344s-2.42969.48906-3.31406 1.37344c-.88594.88437-1.37344 2.06094-1.37344 3.31406 0 1.25156.48906 2.42969 1.37344 3.31406.88437.88594 2.06094 1.37344 3.31406 1.37344 1.04688 0 2.04063-.3406 2.85469-.9688l4.05781 4.0563c.0119.0119.026.0213.0416.0278.0155.0064.0322.0098.049.0098.0169 0 .0335-.0034.0491-.0098.0155-.0065.0297-.0159.0415-.0278l.6813-.6797c.0119-.0119.0213-.026.0278-.0416.0064-.0155.0098-.0322.0098-.049s-.0034-.0335-.0098-.0491c-.0065-.0155-.0159-.0296-.0278-.0415zm-5.3-4.4391c-.6625.66094-1.54063 1.025-2.475 1.025-.93438 0-1.8125-.36406-2.475-1.025-.66094-.6625-1.025-1.54063-1.025-2.475 0-.93438.36406-1.81406 1.025-2.475.6625-.66094 1.54062-1.025 2.475-1.025.93437 0 1.81406.3625 2.475 1.025s1.025 1.54062 1.025 2.475c0 .93437-.36406 1.81406-1.025 2.475z" fill="#fa8c16"/></svg>