<svg fill="none" height="24" viewBox="0 0 24 24" width="24" xmlns="http://www.w3.org/2000/svg"><path d="m17.625 15.5625c-.668 0-1.2844.2344-1.7672.6258l-4.8562-3.5133c.0813-.4463.0813-.9037 0-1.35l4.8562-3.51328c.4828.3914 1.0992.62578 1.7672.62578 1.5516 0 2.8125-1.26094 2.8125-2.8125s-1.2609-2.8125-2.8125-2.8125-2.8125 1.26094-2.8125 2.8125c0 .27187.0375.53203.1102.78047l-4.6125 3.33984c-.68442-.90703-1.77192-1.49531-2.9977-1.49531-2.07188 0-3.75 1.67812-3.75 3.75 0 2.0719 1.67812 3.75 3.75 3.75 1.22578 0 2.31328-.5883 2.9977-1.4953l4.6125 3.3398c-.0727.2485-.1102.511-.1102.7805 0 1.5516 1.2609 2.8125 2.8125 2.8125s2.8125-1.2609 2.8125-2.8125-1.2609-2.8125-2.8125-2.8125zm0-11.15625c.6727 0 1.2188.54609 1.2188 1.21875s-.5461 1.21875-1.2188 1.21875-1.2188-.54609-1.2188-1.21875.5461-1.21875 1.2188-1.21875zm-10.3125 9.65625c-1.13672 0-2.0625-.9258-2.0625-2.0625s.92578-2.0625 2.0625-2.0625 2.0625.9258 2.0625 2.0625-.92578 2.0625-2.0625 2.0625zm10.3125 5.5313c-.6727 0-1.2188-.5461-1.2188-1.2188s.5461-1.2188 1.2188-1.2188 1.2188.5461 1.2188 1.2188-.5461 1.2188-1.2188 1.2188z" fill="#8c8c8c"/></svg>