<svg width="0" height="0" class="hidden">
    <symbol xmlns="http://www.w3.org/2000/svg" viewBox="0 0 24 24" id="comment">
        <path d="M10.875 12a1.125 1.125 0 102.25 0 1.125 1.125 0 00-2.25 0zm4.688 0a1.125 1.125 0 102.25 0 1.125 1.125 0 00-2.25 0zm-9.375 0a1.125 1.125 0 102.25 0 1.125 1.125 0 00-2.25 0zm15.497-4.069A10.503 10.503 0 0012 1.5h-.047A10.475 10.475 0 001.5 12.05a10.533 10.533 0 001.125 4.684v3.563a1.079 1.079 0 001.078 1.078h3.565a10.533 10.533 0 004.685 1.125h.05c1.403 0 2.765-.272 4.047-.804a10.417 10.417 0 003.347-2.231 10.475 10.475 0 003.103-7.418 10.46 10.46 0 00-.815-4.116zm-3.542 10.266A8.673 8.673 0 0112 20.719h-.04a8.75 8.75 0 01-4.057-1.02l-.197-.105h-3.3v-3.3l-.105-.197a8.75 8.75 0 01-1.02-4.057 8.665 8.665 0 012.522-6.183 8.653 8.653 0 016.16-2.576h.04c1.171 0 2.308.228 3.38.678a8.664 8.664 0 012.788 1.875 8.683 8.683 0 012.552 6.206 8.685 8.685 0 01-2.58 6.157z"></path>
    </symbol>
    <symbol xmlns="http://www.w3.org/2000/svg" viewBox="0 0 16 16" id="fire">
        <path d="M13.033 7.331a5.43 5.43 0 00-1.295-1.8l-.455-.417a.126.126 0 00-.203.052l-.203.583c-.127.365-.36.739-.69 1.106a.098.098 0 01-.064.031.086.086 0 01-.067-.023.092.092 0 01-.031-.075c.058-.94-.223-2.002-.84-3.157-.508-.959-1.216-1.707-2.1-2.23l-.646-.379a.125.125 0 00-.187.114l.034.75c.023.513-.036.966-.177 1.342-.172.461-.418.89-.734 1.274a4.62 4.62 0 01-.742.72 5.51 5.51 0 00-1.567 1.899 5.434 5.434 0 00-.133 4.536 5.49 5.49 0 002.928 2.9c.678.284 1.397.428 2.139.428s1.46-.144 2.14-.427a5.446 5.446 0 001.747-1.167A5.408 5.408 0 0013.5 9.533c0-.762-.156-1.503-.467-2.202zm-1.892 5.302c-.84.831-1.954 1.288-3.141 1.288s-2.302-.457-3.14-1.288a4.34 4.34 0 01-1.298-3.1c0-.68.154-1.331.455-1.937a4.42 4.42 0 011.263-1.53c.338-.26.646-.557.915-.888.39-.476.697-1.007.91-1.578a3.75 3.75 0 00.189-.726c.376.347.692.765.956 1.256.522.978.762 1.848.716 2.589a1.156 1.156 0 002.012.847 5.09 5.09 0 00.538-.713c.218.28.401.585.546.913a4.33 4.33 0 01.376 1.767c0 1.17-.461 2.272-1.297 3.1z"></path>
    </symbol>
    <symbol xmlns="http://www.w3.org/2000/svg" viewBox="0 0 24 24" id="like">
        <path d="M20.763 12.51c.394-.52.612-1.158.612-1.822 0-1.052-.588-2.048-1.535-2.604a1.586 1.586 0 00-.804-.218h-5.62l.14-2.88a2.509 2.509 0 00-.691-1.861 2.499 2.499 0 00-1.826-.783c-1.219 0-2.297.82-2.62 1.995l-2.014 7.289h-3.03a.75.75 0 00-.75.75v8.531c0 .415.335.75.75.75h14.093c.216 0 .427-.042.621-.127a3.014 3.014 0 001.709-3.642 3.016 3.016 0 00.485-2.688c.394-.52.612-1.158.612-1.821a3.2 3.2 0 00-.132-.87zm-16.45 7.46v-6.657H6.21v6.657zm14.915-8.274l-.513.445.326.596a1.338 1.338 0 01-.298 1.648l-.513.445.325.595a1.338 1.338 0 01-.298 1.648l-.512.445.325.595a1.332 1.332 0 01-.626 1.854H7.711v-6.729l2.332-8.449a1.033 1.033 0 01.989-.757.833.833 0 01.837.872l-.225 4.65h7.368c.418.255.675.687.675 1.134 0 .387-.168.753-.459 1.008z"></path>
    </symbol>
    <symbol xmlns="http://www.w3.org/2000/svg" viewBox="0 0 24 24" id="exit">
        <path d="M16.537 2.927a.188.188 0 00-.272.17V4.6c0 .129.068.248.176.319a8.255 8.255 0 011.458 1.167 8.319 8.319 0 012.442 5.906 8.33 8.33 0 01-2.442 5.906 8.274 8.274 0 01-2.653 1.79c-1.027.437-2.121.657-3.246.657s-2.22-.22-3.247-.656A8.274 8.274 0 016.1 17.9a8.32 8.32 0 01-2.442-5.906A8.329 8.329 0 016.1 6.086 8.473 8.473 0 017.558 4.92a.374.374 0 00.176-.32V3.095c0-.14-.148-.23-.272-.169a10.14 10.14 0 00-5.587 8.941c-.066 5.597 4.511 10.247 10.106 10.259 5.601.012 10.144-4.53 10.144-10.134 0-3.966-2.274-7.4-5.588-9.064zM11.25 13.125h1.5a.188.188 0 00.187-.188V2.063a.188.188 0 00-.187-.188h-1.5a.188.188 0 00-.188.188v10.874c0 .104.084.188.188.188z"></path>
    </symbol>
    <symbol xmlns="http://www.w3.org/2000/svg" viewBox="0 0 34 34" id="profile">
        <rect fill="#bfbfbf" height="34" rx="4" width="34"></rect>
        <path d="M27.829 24.863a11.688 11.688 0 00-2.52-3.735 11.737 11.737 0 00-3.733-2.519l-.038-.015A7.749 7.749 0 0017 4.563a7.749 7.749 0 00-7.75 7.75 7.744 7.744 0 003.213 6.284l-.038.016c-1.4.59-2.656 1.437-3.734 2.518a11.738 11.738 0 00-2.519 3.735 11.615 11.615 0 00-.921 4.315.25.25 0 00.25.257h1.875a.25.25 0 00.25-.244 9.316 9.316 0 012.743-6.385A9.313 9.313 0 0117 20.063c2.507 0 4.86.975 6.632 2.746a9.316 9.316 0 012.743 6.385.247.247 0 00.25.244H28.5a.252.252 0 00.233-.16.248.248 0 00.017-.097 11.643 11.643 0 00-.921-4.319zM17 17.688c-1.435 0-2.785-.56-3.8-1.575s-1.575-2.366-1.575-3.8.559-2.785 1.575-3.8c1.015-1.016 2.365-1.576 3.8-1.576s2.784.56 3.8 1.575c1.015 1.016 1.575 2.366 1.575 3.8s-.56 2.785-1.575 3.8-2.366 1.576-3.8 1.576z"></path>
    </symbol>
    <symbol xmlns="http://www.w3.org/2000/svg" viewBox="0 0 24 24" id="save">
        <path d="M20.937 6.874l-3.811-3.81a1.494 1.494 0 00-.626-.376v-.063H3.375a.75.75 0 00-.75.75v17.25c0 .415.335.75.75.75h17.25a.75.75 0 00.75-.75V7.934c0-.399-.157-.779-.438-1.06zM9 4.313h6V6.75H9zm10.687 15.375H4.313V4.313H7.5V7.5c0 .415.335.75.75.75h7.5a.75.75 0 00.75-.75V4.823l3.188 3.188zM12 10.358a3.376 3.376 0 10.002 6.752A3.376 3.376 0 0012 10.36zm0 5.25a1.875 1.875 0 110-3.749 1.875 1.875 0 010 3.75z"></path>
    </symbol>
    <symbol xmlns="http://www.w3.org/2000/svg" viewBox="0 0 16 16" id="search">
        <path d="M14.213 13.352l-4.058-4.058c.63-.814.97-1.81.97-2.857a4.66 4.66 0 00-1.373-3.314C8.867 2.237 7.689 1.75 6.437 1.75s-2.43.49-3.314 1.373A4.65 4.65 0 001.75 6.437c0 1.252.49 2.43 1.373 3.315a4.65 4.65 0 003.314 1.373c1.047 0 2.041-.34 2.855-.969l4.058 4.056a.129.129 0 00.181 0l.681-.68a.129.129 0 000-.18zm-5.3-4.44a3.481 3.481 0 01-2.475 1.025 3.481 3.481 0 01-2.475-1.024 3.481 3.481 0 01-1.025-2.476c0-.934.364-1.814 1.025-2.475a3.481 3.481 0 012.475-1.025c.934 0 1.814.363 2.475 1.026s1.025 1.54 1.025 2.474a3.48 3.48 0 01-1.025 2.475z"></path>
    </symbol>
    <symbol xmlns="http://www.w3.org/2000/svg" viewBox="0 0 24 24" id="share">
        <path d="M17.625 15.563a2.8 2.8 0 00-1.767.625l-4.856-3.513a3.767 3.767 0 000-1.35l4.856-3.513a2.8 2.8 0 001.767.626c1.552 0 2.813-1.261 2.813-2.813s-1.261-2.812-2.813-2.812a2.814 2.814 0 00-2.702 3.592l-4.613 3.34A3.749 3.749 0 003.562 12a3.749 3.749 0 006.748 2.255l4.613 3.34a2.815 2.815 0 002.702 3.593c1.552 0 2.813-1.261 2.813-2.813s-1.261-2.813-2.813-2.813zm0-11.157a1.22 1.22 0 11-.001 2.439 1.22 1.22 0 01.001-2.439zM7.312 14.063c-1.136 0-2.062-.926-2.062-2.063s.926-2.063 2.063-2.063 2.062.926 2.062 2.063-.926 2.063-2.063 2.063zm10.313 5.53a1.22 1.22 0 11.001-2.438 1.22 1.22 0 01-.001 2.439z"></path>
    </symbol>
    <symbol xmlns="http://www.w3.org/2000/svg" viewBox="0 0 16 16" id="video">
        <path d="M14.25 4.723l-2 1.152V3.5a1 1 0 00-1-1H2a1 1 0 00-1 1v9a1 1 0 001 1h9.25a1 1 0 001-1v-2.375l2 1.152a.5.5 0 00.75-.432V5.156a.5.5 0 00-.75-.433zm-3.125 7.652h-9v-8.75h9v8.75zm2.75-2.61l-1.625-.934v-1.66l1.625-.937v3.532zM3.25 5.626H5a.125.125 0 00.125-.125v-.75A.125.125 0 005 4.625H3.25a.125.125 0 00-.125.125v.75c0 .069.056.125.125.125z"></path>
    </symbol>
    <symbol xmlns="http://www.w3.org/2000/svg" viewBox="0 0 16 16" id="picture">
        <path d="M14.5 2.5h-13A.5.5 0 001 3v10a.5.5 0 00.5.5h13a.5.5 0 00.5-.5V3a.5.5 0 00-.5-.5zm-.625 9.875H2.125v-.623l2.164-2.568 2.345 2.782 3.649-4.325 3.592 4.259v.475zm0-2.028L10.378 6.2a.124.124 0 00-.19 0l-3.554 4.212-2.25-2.667a.124.124 0 00-.19 0l-2.069 2.453V3.625h11.75v6.722zM4.75 7.125a1.375 1.375 0 100-2.75 1.375 1.375 0 000 2.75zm0-1.813a.437.437 0 11.001.874.437.437 0 01-.001-.873z"></path>
    </symbol>
</svg>
